<svg xmlns="http://www.w3.org/2000/svg" xmlns:xlink="http://www.w3.org/1999/xlink" width="1152" height="264" viewBox="0 0 1152 264"><defs><style>.a{fill:url(#a);}.b{clip-path:url(#c);}.c{opacity:0.253;}.d{fill:#fff;}</style><linearGradient id="a" y1="0.5" x2="1" y2="0.5" gradientUnits="objectBoundingBox"><stop offset="0" stop-color="#3fbec3"/><stop offset="1" stop-color="#3b6cba"/></linearGradient><clipPath id="c"><rect class="a" width="1152" height="264" rx="8" transform="translate(-3567 5994)"/></clipPath></defs><g transform="translate(3567 -5559)"><rect class="a" width="1152" height="264" rx="8" transform="translate(-3567 5559)"/><g class="b" transform="translate(0 -435)"><g class="c" transform="translate(-4281.26 5239.01) rotate(-30)"><g transform="translate(391.542 1012)"><g transform="translate(0 255.954)"><circle class="d" cx="9.5" cy="9.5" r="9.5" transform="translate(0.457 71.046)"/><circle class="d" cx="9.5" cy="9.5" r="9.5" transform="translate(23.457 71.046)"/><ellipse class="d" cx="9.5" cy="10" rx="9.5" ry="10" transform="translate(0.457 47.046)"/><ellipse class="d" cx="9.5" cy="10" rx="9.5" ry="10" transform="translate(23.457 47.046)"/><circle class="d" cx="9.5" cy="9.5" r="9.5" transform="translate(0.457 24.046)"/><circle class="d" cx="9.5" cy="9.5" r="9.5" transform="translate(23.457 24.046)"/><circle class="d" cx="9.5" cy="9.5" r="9.5" transform="translate(0.457 0.046)"/><circle class="d" cx="9.5" cy="9.5" r="9.5" transform="translate(23.457 0.046)"/></g><g transform="translate(2.994 166.145)"><circle class="d" cx="7" cy="7" r="7" transform="translate(0.464 70.855)"/><circle class="d" cx="7" cy="7" r="7" transform="translate(23.464 70.855)"/><ellipse class="d" cx="7" cy="7.5" rx="7" ry="7.5" transform="translate(0.464 46.855)"/><ellipse class="d" cx="7" cy="7.5" rx="7" ry="7.5" transform="translate(23.464 46.855)"/><ellipse class="d" cx="7" cy="7.5" rx="7" ry="7.5" transform="translate(0.464 22.855)"/><ellipse class="d" cx="7" cy="7.5" rx="7" ry="7.5" transform="translate(23.464 22.855)"/><circle class="d" cx="7" cy="7" r="7" transform="translate(0.464 -0.145)"/><circle class="d" cx="7" cy="7" r="7" transform="translate(23.464 -0.145)"/></g><g transform="translate(5.239 80.827)"><circle class="d" cx="4.5" cy="4.5" r="4.5" transform="translate(0.219 71.172)"/><circle class="d" cx="5" cy="5" r="5" transform="translate(23.219 71.172)"/><circle class="d" cx="4.5" cy="4.5" r="4.5" transform="translate(0.219 47.172)"/><circle class="d" cx="5" cy="5" r="5" transform="translate(23.219 47.172)"/><circle class="d" cx="4.5" cy="4.5" r="4.5" transform="translate(0.219 23.172)"/><circle class="d" cx="5" cy="5" r="5" transform="translate(23.219 23.172)"/><circle class="d" cx="4.5" cy="4.5" r="4.5" transform="translate(0.219 0.172)"/><circle class="d" cx="5" cy="5" r="5" transform="translate(23.219 0.172)"/></g><g transform="translate(7.484)"><circle class="d" cx="2.5" cy="2.5" r="2.5" transform="translate(-0.026 71)"/><ellipse class="d" cx="2" cy="2.5" rx="2" ry="2.5" transform="translate(23.973 71)"/><circle class="d" cx="2.5" cy="2.5" r="2.5" transform="translate(-0.026 47)"/><ellipse class="d" cx="2" cy="2.5" rx="2" ry="2.5" transform="translate(23.973 47)"/><ellipse class="d" cx="2.5" cy="2" rx="2.5" ry="2" transform="translate(-0.026 24)"/><circle class="d" cx="2" cy="2" r="2" transform="translate(23.973 24)"/><ellipse class="d" cx="2.5" cy="2" rx="2.5" ry="2" transform="translate(-0.026)"/><circle class="d" cx="2" cy="2" r="2" transform="translate(23.973)"/></g></g><g transform="translate(249.346 1012)"><g transform="translate(0 0)"><ellipse class="d" cx="10" cy="9.5" rx="10" ry="9.5" transform="translate(-0.346)"/><circle class="d" cx="9.5" cy="9.5" r="9.5" transform="translate(23.654)"/><ellipse class="d" cx="10" cy="9.5" rx="10" ry="9.5" transform="translate(-0.346 24)"/><circle class="d" cx="9.5" cy="9.5" r="9.5" transform="translate(23.654 24)"/><circle class="d" cx="10" cy="10" r="10" transform="translate(-0.346 47)"/><ellipse class="d" cx="9.5" cy="10" rx="9.5" ry="10" transform="translate(23.654 47)"/><ellipse class="d" cx="10" cy="9.5" rx="10" ry="9.5" transform="translate(-0.346 71)"/><circle class="d" cx="9.5" cy="9.5" r="9.5" transform="translate(23.654 71)"/></g><g transform="translate(2.994 95.047)"><ellipse class="d" cx="7.5" cy="7" rx="7.5" ry="7" transform="translate(-0.34 -0.047)"/><circle class="d" cx="7" cy="7" r="7" transform="translate(23.66 -0.047)"/><ellipse class="d" cx="7.5" cy="7" rx="7.5" ry="7" transform="translate(-0.34 22.953)"/><circle class="d" cx="7" cy="7" r="7" transform="translate(23.66 22.953)"/><ellipse class="d" cx="7.5" cy="7" rx="7.5" ry="7" transform="translate(-0.34 46.953)"/><circle class="d" cx="7" cy="7" r="7" transform="translate(23.66 46.953)"/><ellipse class="d" cx="7.5" cy="7" rx="7.5" ry="7" transform="translate(-0.34 70.953)"/><circle class="d" cx="7" cy="7" r="7" transform="translate(23.66 70.953)"/></g><g transform="translate(5.239 184.856)"><circle class="d" cx="4.5" cy="4.5" r="4.5" transform="translate(0.415 0.145)"/><circle class="d" cx="5" cy="5" r="5" transform="translate(23.415 0.145)"/><circle class="d" cx="4.5" cy="4.5" r="4.5" transform="translate(0.415 24.145)"/><circle class="d" cx="5" cy="5" r="5" transform="translate(23.415 24.145)"/><circle class="d" cx="4.5" cy="4.5" r="4.5" transform="translate(0.415 47.145)"/><circle class="d" cx="5" cy="5" r="5" transform="translate(23.415 47.145)"/><circle class="d" cx="4.5" cy="4.5" r="4.5" transform="translate(0.415 71.145)"/><circle class="d" cx="5" cy="5" r="5" transform="translate(23.415 71.145)"/></g><g transform="translate(7.484 270.173)"><ellipse class="d" cx="2" cy="2.5" rx="2" ry="2.5" transform="translate(0.17 -0.173)"/><ellipse class="d" cx="2" cy="2.5" rx="2" ry="2.5" transform="translate(24.17 -0.173)"/><ellipse class="d" cx="2" cy="2.5" rx="2" ry="2.5" transform="translate(0.17 23.827)"/><ellipse class="d" cx="2" cy="2.5" rx="2" ry="2.5" transform="translate(24.17 23.827)"/><ellipse class="d" cx="2" cy="2.5" rx="2" ry="2.5" transform="translate(0.17 46.827)"/><ellipse class="d" cx="2" cy="2.5" rx="2" ry="2.5" transform="translate(24.17 46.827)"/><ellipse class="d" cx="2" cy="2.5" rx="2" ry="2.5" transform="translate(0.17 70.827)"/><ellipse class="d" cx="2" cy="2.5" rx="2" ry="2.5" transform="translate(24.17 70.827)"/></g></g><g transform="translate(155.047 1012)"><g transform="translate(0 0)"><circle class="d" cx="9.5" cy="9.5" r="9.5" transform="translate(-0.047)"/><ellipse class="d" cx="10" cy="9.5" rx="10" ry="9.5" transform="translate(22.953)"/><circle class="d" cx="9.5" cy="9.5" r="9.5" transform="translate(-0.047 24)"/><ellipse class="d" cx="10" cy="9.5" rx="10" ry="9.5" transform="translate(22.953 24)"/><ellipse class="d" cx="9.5" cy="10" rx="9.5" ry="10" transform="translate(-0.047 47)"/><circle class="d" cx="10" cy="10" r="10" transform="translate(22.953 47)"/><circle class="d" cx="9.5" cy="9.5" r="9.5" transform="translate(-0.047 71)"/><ellipse class="d" cx="10" cy="9.5" rx="10" ry="9.5" transform="translate(22.953 71)"/></g><g transform="translate(2.245 95.047)"><ellipse class="d" cx="7.5" cy="7" rx="7.5" ry="7" transform="translate(-0.292 -0.047)"/><circle class="d" cx="7" cy="7" r="7" transform="translate(23.708 -0.047)"/><ellipse class="d" cx="7.5" cy="7" rx="7.5" ry="7" transform="translate(-0.292 22.953)"/><circle class="d" cx="7" cy="7" r="7" transform="translate(23.708 22.953)"/><ellipse class="d" cx="7.5" cy="7" rx="7.5" ry="7" transform="translate(-0.292 46.953)"/><circle class="d" cx="7" cy="7" r="7" transform="translate(23.708 46.953)"/><ellipse class="d" cx="7.5" cy="7" rx="7.5" ry="7" transform="translate(-0.292 70.953)"/><circle class="d" cx="7" cy="7" r="7" transform="translate(23.708 70.953)"/></g><g transform="translate(4.49 184.856)"><ellipse class="d" cx="4.5" cy="5" rx="4.5" ry="5" transform="translate(0.462 0.145)"/><circle class="d" cx="4.5" cy="4.5" r="4.5" transform="translate(23.462 0.145)"/><ellipse class="d" cx="4.5" cy="5" rx="4.5" ry="5" transform="translate(0.462 24.145)"/><circle class="d" cx="4.5" cy="4.5" r="4.5" transform="translate(23.462 24.145)"/><ellipse class="d" cx="4.5" cy="5" rx="4.5" ry="5" transform="translate(0.462 47.145)"/><circle class="d" cx="4.5" cy="4.5" r="4.5" transform="translate(23.462 47.145)"/><ellipse class="d" cx="4.5" cy="5" rx="4.5" ry="5" transform="translate(0.462 71.145)"/><circle class="d" cx="4.5" cy="4.5" r="4.5" transform="translate(23.462 71.145)"/></g><g transform="translate(6.736 270.173)"><ellipse class="d" cx="2" cy="2.5" rx="2" ry="2.5" transform="translate(0.217 -0.173)"/><ellipse class="d" cx="2" cy="2.5" rx="2" ry="2.5" transform="translate(24.217 -0.173)"/><ellipse class="d" cx="2" cy="2.5" rx="2" ry="2.5" transform="translate(0.217 23.827)"/><ellipse class="d" cx="2" cy="2.5" rx="2" ry="2.5" transform="translate(24.217 23.827)"/><ellipse class="d" cx="2.5" cy="3" rx="2.5" ry="3" transform="translate(0.217 46.827)"/><ellipse class="d" cx="2" cy="2.5" rx="2" ry="2.5" transform="translate(24.217 46.827)"/><ellipse class="d" cx="2" cy="2.5" rx="2" ry="2.5" transform="translate(0.217 70.827)"/><ellipse class="d" cx="2" cy="2.5" rx="2" ry="2.5" transform="translate(24.217 70.827)"/></g></g><g transform="translate(344.393 1012)"><g transform="translate(0 0)"><circle class="d" cx="9.5" cy="9.5" r="9.5" transform="translate(-0.393)"/><circle class="d" cx="9.5" cy="9.5" r="9.5" transform="translate(23.607)"/><circle class="d" cx="9.5" cy="9.5" r="9.5" transform="translate(-0.393 24)"/><circle class="d" cx="9.5" cy="9.5" r="9.5" transform="translate(23.607 24)"/><ellipse class="d" cx="9.5" cy="10" rx="9.5" ry="10" transform="translate(-0.393 47)"/><ellipse class="d" cx="9.5" cy="10" rx="9.5" ry="10" transform="translate(23.607 47)"/><circle class="d" cx="9.5" cy="9.5" r="9.5" transform="translate(-0.393 71)"/><circle class="d" cx="9.5" cy="9.5" r="9.5" transform="translate(23.607 71)"/></g><g transform="translate(2.245 95.047)"><circle class="d" cx="7" cy="7" r="7" transform="translate(0.362 -0.047)"/><circle class="d" cx="7" cy="7" r="7" transform="translate(24.362 -0.047)"/><circle class="d" cx="7" cy="7" r="7" transform="translate(0.362 22.953)"/><circle class="d" cx="7" cy="7" r="7" transform="translate(24.362 22.953)"/><circle class="d" cx="7" cy="7" r="7" transform="translate(0.362 46.953)"/><circle class="d" cx="7" cy="7" r="7" transform="translate(24.362 46.953)"/><circle class="d" cx="7" cy="7" r="7" transform="translate(0.362 70.953)"/><circle class="d" cx="7" cy="7" r="7" transform="translate(24.362 70.953)"/></g><g transform="translate(4.49 184.856)"><circle class="d" cx="5" cy="5" r="5" transform="translate(0.116 0.145)"/><circle class="d" cx="5" cy="5" r="5" transform="translate(24.116 0.145)"/><circle class="d" cx="5" cy="5" r="5" transform="translate(0.116 24.145)"/><circle class="d" cx="5" cy="5" r="5" transform="translate(24.116 24.145)"/><circle class="d" cx="5" cy="5" r="5" transform="translate(0.116 47.145)"/><circle class="d" cx="5" cy="5" r="5" transform="translate(24.116 47.145)"/><circle class="d" cx="5" cy="5" r="5" transform="translate(0.116 71.145)"/><circle class="d" cx="5" cy="5" r="5" transform="translate(24.116 71.145)"/></g><g transform="translate(7.484 270.173)"><ellipse class="d" cx="2" cy="2.5" rx="2" ry="2.5" transform="translate(0.123 -0.173)"/><circle class="d" cx="2.5" cy="2.5" r="2.5" transform="translate(23.123 -0.173)"/><ellipse class="d" cx="2" cy="2.5" rx="2" ry="2.5" transform="translate(0.123 23.827)"/><circle class="d" cx="2.5" cy="2.5" r="2.5" transform="translate(23.123 23.827)"/><ellipse class="d" cx="2" cy="2.5" rx="2" ry="2.5" transform="translate(0.123 46.827)"/><ellipse class="d" cx="2.5" cy="3" rx="2.5" ry="3" transform="translate(23.123 46.827)"/><ellipse class="d" cx="2" cy="2.5" rx="2" ry="2.5" transform="translate(0.123 70.827)"/><circle class="d" cx="2.5" cy="2.5" r="2.5" transform="translate(23.123 70.827)"/></g></g><g transform="translate(107.149 1012)"><g transform="translate(0 255.954)"><ellipse class="d" cx="10" cy="9.5" rx="10" ry="9.5" transform="translate(-0.149 71.046)"/><circle class="d" cx="9.5" cy="9.5" r="9.5" transform="translate(23.851 71.046)"/><circle class="d" cx="10" cy="10" r="10" transform="translate(-0.149 47.046)"/><ellipse class="d" cx="9.5" cy="10" rx="9.5" ry="10" transform="translate(23.851 47.046)"/><ellipse class="d" cx="10" cy="9.5" rx="10" ry="9.5" transform="translate(-0.149 24.046)"/><circle class="d" cx="9.5" cy="9.5" r="9.5" transform="translate(23.851 24.046)"/><ellipse class="d" cx="10" cy="9.5" rx="10" ry="9.5" transform="translate(-0.149 0.046)"/><circle class="d" cx="9.5" cy="9.5" r="9.5" transform="translate(23.851 0.046)"/></g><g transform="translate(2.994 166.145)"><circle class="d" cx="7" cy="7" r="7" transform="translate(-0.143 70.855)"/><ellipse class="d" cx="7.5" cy="7" rx="7.5" ry="7" transform="translate(22.857 70.855)"/><ellipse class="d" cx="7" cy="7.5" rx="7" ry="7.5" transform="translate(-0.143 46.855)"/><circle class="d" cx="7.5" cy="7.5" r="7.5" transform="translate(22.857 46.855)"/><ellipse class="d" cx="7" cy="7.5" rx="7" ry="7.5" transform="translate(-0.143 22.855)"/><circle class="d" cx="7.5" cy="7.5" r="7.5" transform="translate(22.857 22.855)"/><circle class="d" cx="7" cy="7" r="7" transform="translate(-0.143 -0.145)"/><ellipse class="d" cx="7.5" cy="7" rx="7.5" ry="7" transform="translate(22.857 -0.145)"/></g><g transform="translate(5.239 80.827)"><circle class="d" cx="4.5" cy="4.5" r="4.5" transform="translate(-0.388 71.172)"/><ellipse class="d" cx="4.5" cy="5" rx="4.5" ry="5" transform="translate(23.612 71.172)"/><circle class="d" cx="4.5" cy="4.5" r="4.5" transform="translate(-0.388 47.172)"/><ellipse class="d" cx="4.5" cy="5" rx="4.5" ry="5" transform="translate(23.612 47.172)"/><circle class="d" cx="4.5" cy="4.5" r="4.5" transform="translate(-0.388 23.172)"/><ellipse class="d" cx="4.5" cy="5" rx="4.5" ry="5" transform="translate(23.612 23.172)"/><circle class="d" cx="4.5" cy="4.5" r="4.5" transform="translate(-0.388 0.172)"/><ellipse class="d" cx="4.5" cy="5" rx="4.5" ry="5" transform="translate(23.612 0.172)"/></g><g transform="translate(7.484)"><ellipse class="d" cx="2" cy="2.5" rx="2" ry="2.5" transform="translate(0.367 71)"/><ellipse class="d" cx="2" cy="2.5" rx="2" ry="2.5" transform="translate(24.367 71)"/><ellipse class="d" cx="2" cy="2.5" rx="2" ry="2.5" transform="translate(0.367 47)"/><ellipse class="d" cx="2" cy="2.5" rx="2" ry="2.5" transform="translate(24.367 47)"/><circle class="d" cx="2" cy="2" r="2" transform="translate(0.367 24)"/><circle class="d" cx="2" cy="2" r="2" transform="translate(24.367 24)"/><circle class="d" cx="2" cy="2" r="2" transform="translate(0.367)"/><circle class="d" cx="2" cy="2" r="2" transform="translate(24.367)"/></g></g><g transform="translate(297.244 1012)"><g transform="translate(0 255.954)"><circle class="d" cx="9.5" cy="9.5" r="9.5" transform="translate(-0.244 71.046)"/><ellipse class="d" cx="10" cy="9.5" rx="10" ry="9.5" transform="translate(22.756 71.046)"/><ellipse class="d" cx="9.5" cy="10" rx="9.5" ry="10" transform="translate(-0.244 47.046)"/><circle class="d" cx="10" cy="10" r="10" transform="translate(22.756 47.046)"/><circle class="d" cx="9.5" cy="9.5" r="9.5" transform="translate(-0.244 24.046)"/><ellipse class="d" cx="10" cy="9.5" rx="10" ry="9.5" transform="translate(22.756 24.046)"/><circle class="d" cx="9.5" cy="9.5" r="9.5" transform="translate(-0.244 0.046)"/><ellipse class="d" cx="10" cy="9.5" rx="10" ry="9.5" transform="translate(22.756 0.046)"/></g><g transform="translate(2.245 166.145)"><ellipse class="d" cx="7.5" cy="7" rx="7.5" ry="7" transform="translate(-0.489 70.855)"/><ellipse class="d" cx="7.5" cy="7" rx="7.5" ry="7" transform="translate(23.511 70.855)"/><circle class="d" cx="7.5" cy="7.5" r="7.5" transform="translate(-0.489 46.855)"/><circle class="d" cx="7.5" cy="7.5" r="7.5" transform="translate(23.511 46.855)"/><circle class="d" cx="7.5" cy="7.5" r="7.5" transform="translate(-0.489 22.855)"/><circle class="d" cx="7.5" cy="7.5" r="7.5" transform="translate(23.511 22.855)"/><ellipse class="d" cx="7.5" cy="7" rx="7.5" ry="7" transform="translate(-0.489 -0.145)"/><ellipse class="d" cx="7.5" cy="7" rx="7.5" ry="7" transform="translate(23.511 -0.145)"/></g><g transform="translate(4.49 80.827)"><ellipse class="d" cx="4.5" cy="5" rx="4.5" ry="5" transform="translate(0.266 71.172)"/><circle class="d" cx="4.5" cy="4.5" r="4.5" transform="translate(24.266 71.172)"/><ellipse class="d" cx="4.5" cy="5" rx="4.5" ry="5" transform="translate(0.266 47.172)"/><circle class="d" cx="4.5" cy="4.5" r="4.5" transform="translate(24.266 47.172)"/><ellipse class="d" cx="4.5" cy="5" rx="4.5" ry="5" transform="translate(0.266 23.172)"/><circle class="d" cx="4.5" cy="4.5" r="4.5" transform="translate(24.266 23.172)"/><ellipse class="d" cx="4.5" cy="5" rx="4.5" ry="5" transform="translate(0.266 0.172)"/><circle class="d" cx="4.5" cy="4.5" r="4.5" transform="translate(24.266 0.172)"/></g><g transform="translate(6.736)"><ellipse class="d" cx="2" cy="2.5" rx="2" ry="2.5" transform="translate(0.021 71)"/><ellipse class="d" cx="2" cy="2.5" rx="2" ry="2.5" transform="translate(24.021 71)"/><circle class="d" cx="2.5" cy="2.5" r="2.5" transform="translate(0.021 47)"/><ellipse class="d" cx="2" cy="2.5" rx="2" ry="2.5" transform="translate(24.021 47)"/><circle class="d" cx="2" cy="2" r="2" transform="translate(0.021 24)"/><circle class="d" cx="2" cy="2" r="2" transform="translate(24.021 24)"/><circle class="d" cx="2" cy="2" r="2" transform="translate(0.021)"/><circle class="d" cx="2" cy="2" r="2" transform="translate(24.021)"/></g></g><g transform="translate(202.197 1012)"><g transform="translate(0 255.954)"><circle class="d" cx="9.5" cy="9.5" r="9.5" transform="translate(-0.197 71.046)"/><circle class="d" cx="9.5" cy="9.5" r="9.5" transform="translate(23.803 71.046)"/><ellipse class="d" cx="9.5" cy="10" rx="9.5" ry="10" transform="translate(-0.197 47.046)"/><ellipse class="d" cx="9.5" cy="10" rx="9.5" ry="10" transform="translate(23.803 47.046)"/><circle class="d" cx="9.5" cy="9.5" r="9.5" transform="translate(-0.197 24.046)"/><circle class="d" cx="9.5" cy="9.5" r="9.5" transform="translate(23.803 24.046)"/><circle class="d" cx="9.5" cy="9.5" r="9.5" transform="translate(-0.197 0.046)"/><circle class="d" cx="9.5" cy="9.5" r="9.5" transform="translate(23.803 0.046)"/></g><g transform="translate(2.245 166.145)"><ellipse class="d" cx="7.5" cy="7" rx="7.5" ry="7" transform="translate(-0.442 70.855)"/><ellipse class="d" cx="7.5" cy="7" rx="7.5" ry="7" transform="translate(23.558 70.855)"/><circle class="d" cx="7.5" cy="7.5" r="7.5" transform="translate(-0.442 46.855)"/><circle class="d" cx="7.5" cy="7.5" r="7.5" transform="translate(23.558 46.855)"/><circle class="d" cx="7.5" cy="7.5" r="7.5" transform="translate(-0.442 22.855)"/><circle class="d" cx="7.5" cy="7.5" r="7.5" transform="translate(23.558 22.855)"/><ellipse class="d" cx="7.5" cy="7" rx="7.5" ry="7" transform="translate(-0.442 -0.145)"/><ellipse class="d" cx="7.5" cy="7" rx="7.5" ry="7" transform="translate(23.558 -0.145)"/></g><g transform="translate(4.49 80.827)"><ellipse class="d" cx="4.5" cy="5" rx="4.5" ry="5" transform="translate(0.313 71.172)"/><ellipse class="d" cx="4.5" cy="5" rx="4.5" ry="5" transform="translate(24.313 71.172)"/><ellipse class="d" cx="4.5" cy="5" rx="4.5" ry="5" transform="translate(0.313 47.172)"/><ellipse class="d" cx="4.5" cy="5" rx="4.5" ry="5" transform="translate(24.313 47.172)"/><ellipse class="d" cx="4.5" cy="5" rx="4.5" ry="5" transform="translate(0.313 23.172)"/><ellipse class="d" cx="4.5" cy="5" rx="4.5" ry="5" transform="translate(24.313 23.172)"/><ellipse class="d" cx="4.5" cy="5" rx="4.5" ry="5" transform="translate(0.313 0.172)"/><ellipse class="d" cx="4.5" cy="5" rx="4.5" ry="5" transform="translate(24.313 0.172)"/></g><g transform="translate(7.484)"><ellipse class="d" cx="2" cy="2.5" rx="2" ry="2.5" transform="translate(0.319 71)"/><ellipse class="d" cx="2" cy="2.5" rx="2" ry="2.5" transform="translate(23.319 71)"/><ellipse class="d" cx="2" cy="2.5" rx="2" ry="2.5" transform="translate(0.319 47)"/><circle class="d" cx="2.5" cy="2.5" r="2.5" transform="translate(23.319 47)"/><circle class="d" cx="2" cy="2" r="2" transform="translate(0.319 24)"/><circle class="d" cx="2" cy="2" r="2" transform="translate(23.319 24)"/><circle class="d" cx="2" cy="2" r="2" transform="translate(0.319)"/><circle class="d" cx="2" cy="2" r="2" transform="translate(23.319)"/></g></g></g><g class="c" transform="translate(-3354.26 5239.01) rotate(-30)"><g transform="translate(391.542 1012)"><g transform="translate(0 255.954)"><circle class="d" cx="9.5" cy="9.5" r="9.5" transform="translate(0.457 71.046)"/><circle class="d" cx="9.5" cy="9.5" r="9.5" transform="translate(23.457 71.046)"/><ellipse class="d" cx="9.5" cy="10" rx="9.5" ry="10" transform="translate(0.457 47.046)"/><ellipse class="d" cx="9.5" cy="10" rx="9.5" ry="10" transform="translate(23.457 47.046)"/><circle class="d" cx="9.5" cy="9.5" r="9.5" transform="translate(0.457 24.046)"/><circle class="d" cx="9.5" cy="9.5" r="9.5" transform="translate(23.457 24.046)"/><circle class="d" cx="9.5" cy="9.5" r="9.5" transform="translate(0.457 0.046)"/><circle class="d" cx="9.5" cy="9.5" r="9.5" transform="translate(23.457 0.046)"/></g><g transform="translate(2.994 166.145)"><circle class="d" cx="7" cy="7" r="7" transform="translate(0.464 70.855)"/><circle class="d" cx="7" cy="7" r="7" transform="translate(23.464 70.855)"/><ellipse class="d" cx="7" cy="7.5" rx="7" ry="7.5" transform="translate(0.464 46.855)"/><ellipse class="d" cx="7" cy="7.5" rx="7" ry="7.5" transform="translate(23.464 46.855)"/><ellipse class="d" cx="7" cy="7.5" rx="7" ry="7.5" transform="translate(0.464 22.855)"/><ellipse class="d" cx="7" cy="7.5" rx="7" ry="7.5" transform="translate(23.464 22.855)"/><circle class="d" cx="7" cy="7" r="7" transform="translate(0.464 -0.145)"/><circle class="d" cx="7" cy="7" r="7" transform="translate(23.464 -0.145)"/></g><g transform="translate(5.239 80.827)"><circle class="d" cx="4.5" cy="4.5" r="4.5" transform="translate(0.219 71.172)"/><circle class="d" cx="5" cy="5" r="5" transform="translate(23.219 71.172)"/><circle class="d" cx="4.5" cy="4.5" r="4.5" transform="translate(0.219 47.172)"/><circle class="d" cx="5" cy="5" r="5" transform="translate(23.219 47.172)"/><circle class="d" cx="4.5" cy="4.5" r="4.5" transform="translate(0.219 23.172)"/><circle class="d" cx="5" cy="5" r="5" transform="translate(23.219 23.172)"/><circle class="d" cx="4.5" cy="4.5" r="4.5" transform="translate(0.219 0.172)"/><circle class="d" cx="5" cy="5" r="5" transform="translate(23.219 0.172)"/></g><g transform="translate(7.484)"><circle class="d" cx="2.5" cy="2.5" r="2.5" transform="translate(-0.026 71)"/><ellipse class="d" cx="2" cy="2.5" rx="2" ry="2.5" transform="translate(23.973 71)"/><circle class="d" cx="2.5" cy="2.5" r="2.5" transform="translate(-0.026 47)"/><ellipse class="d" cx="2" cy="2.5" rx="2" ry="2.5" transform="translate(23.973 47)"/><ellipse class="d" cx="2.5" cy="2" rx="2.5" ry="2" transform="translate(-0.026 24)"/><circle class="d" cx="2" cy="2" r="2" transform="translate(23.973 24)"/><ellipse class="d" cx="2.5" cy="2" rx="2.5" ry="2" transform="translate(-0.026)"/><circle class="d" cx="2" cy="2" r="2" transform="translate(23.973)"/></g></g><g transform="translate(249.346 1012)"><g transform="translate(0 0)"><ellipse class="d" cx="10" cy="9.5" rx="10" ry="9.5" transform="translate(-0.346)"/><circle class="d" cx="9.5" cy="9.5" r="9.5" transform="translate(23.654)"/><ellipse class="d" cx="10" cy="9.5" rx="10" ry="9.5" transform="translate(-0.346 24)"/><circle class="d" cx="9.5" cy="9.5" r="9.5" transform="translate(23.654 24)"/><circle class="d" cx="10" cy="10" r="10" transform="translate(-0.346 47)"/><ellipse class="d" cx="9.5" cy="10" rx="9.5" ry="10" transform="translate(23.654 47)"/><ellipse class="d" cx="10" cy="9.5" rx="10" ry="9.5" transform="translate(-0.346 71)"/><circle class="d" cx="9.5" cy="9.5" r="9.5" transform="translate(23.654 71)"/></g><g transform="translate(2.994 95.047)"><ellipse class="d" cx="7.5" cy="7" rx="7.5" ry="7" transform="translate(-0.34 -0.047)"/><circle class="d" cx="7" cy="7" r="7" transform="translate(23.66 -0.047)"/><ellipse class="d" cx="7.5" cy="7" rx="7.5" ry="7" transform="translate(-0.34 22.953)"/><circle class="d" cx="7" cy="7" r="7" transform="translate(23.66 22.953)"/><ellipse class="d" cx="7.5" cy="7" rx="7.5" ry="7" transform="translate(-0.34 46.953)"/><circle class="d" cx="7" cy="7" r="7" transform="translate(23.66 46.953)"/><ellipse class="d" cx="7.5" cy="7" rx="7.5" ry="7" transform="translate(-0.34 70.953)"/><circle class="d" cx="7" cy="7" r="7" transform="translate(23.66 70.953)"/></g><g transform="translate(5.239 184.856)"><circle class="d" cx="4.5" cy="4.5" r="4.5" transform="translate(0.415 0.145)"/><circle class="d" cx="5" cy="5" r="5" transform="translate(23.415 0.145)"/><circle class="d" cx="4.5" cy="4.5" r="4.5" transform="translate(0.415 24.145)"/><circle class="d" cx="5" cy="5" r="5" transform="translate(23.415 24.145)"/><circle class="d" cx="4.5" cy="4.5" r="4.5" transform="translate(0.415 47.145)"/><circle class="d" cx="5" cy="5" r="5" transform="translate(23.415 47.145)"/><circle class="d" cx="4.5" cy="4.5" r="4.5" transform="translate(0.415 71.145)"/><circle class="d" cx="5" cy="5" r="5" transform="translate(23.415 71.145)"/></g><g transform="translate(7.484 270.173)"><ellipse class="d" cx="2" cy="2.5" rx="2" ry="2.5" transform="translate(0.17 -0.173)"/><ellipse class="d" cx="2" cy="2.5" rx="2" ry="2.5" transform="translate(24.17 -0.173)"/><ellipse class="d" cx="2" cy="2.5" rx="2" ry="2.5" transform="translate(0.17 23.827)"/><ellipse class="d" cx="2" cy="2.5" rx="2" ry="2.5" transform="translate(24.17 23.827)"/><ellipse class="d" cx="2" cy="2.5" rx="2" ry="2.5" transform="translate(0.17 46.827)"/><ellipse class="d" cx="2" cy="2.5" rx="2" ry="2.5" transform="translate(24.17 46.827)"/><ellipse class="d" cx="2" cy="2.5" rx="2" ry="2.5" transform="translate(0.17 70.827)"/><ellipse class="d" cx="2" cy="2.5" rx="2" ry="2.5" transform="translate(24.17 70.827)"/></g></g><g transform="translate(155.047 1012)"><g transform="translate(0 0)"><circle class="d" cx="9.5" cy="9.5" r="9.5" transform="translate(-0.047)"/><ellipse class="d" cx="10" cy="9.5" rx="10" ry="9.5" transform="translate(22.953)"/><circle class="d" cx="9.5" cy="9.5" r="9.5" transform="translate(-0.047 24)"/><ellipse class="d" cx="10" cy="9.5" rx="10" ry="9.5" transform="translate(22.953 24)"/><ellipse class="d" cx="9.5" cy="10" rx="9.5" ry="10" transform="translate(-0.047 47)"/><circle class="d" cx="10" cy="10" r="10" transform="translate(22.953 47)"/><circle class="d" cx="9.5" cy="9.5" r="9.5" transform="translate(-0.047 71)"/><ellipse class="d" cx="10" cy="9.5" rx="10" ry="9.5" transform="translate(22.953 71)"/></g><g transform="translate(2.245 95.047)"><ellipse class="d" cx="7.5" cy="7" rx="7.5" ry="7" transform="translate(-0.292 -0.047)"/><circle class="d" cx="7" cy="7" r="7" transform="translate(23.708 -0.047)"/><ellipse class="d" cx="7.5" cy="7" rx="7.5" ry="7" transform="translate(-0.292 22.953)"/><circle class="d" cx="7" cy="7" r="7" transform="translate(23.708 22.953)"/><ellipse class="d" cx="7.5" cy="7" rx="7.5" ry="7" transform="translate(-0.292 46.953)"/><circle class="d" cx="7" cy="7" r="7" transform="translate(23.708 46.953)"/><ellipse class="d" cx="7.5" cy="7" rx="7.5" ry="7" transform="translate(-0.292 70.953)"/><circle class="d" cx="7" cy="7" r="7" transform="translate(23.708 70.953)"/></g><g transform="translate(4.49 184.856)"><ellipse class="d" cx="4.5" cy="5" rx="4.5" ry="5" transform="translate(0.462 0.145)"/><circle class="d" cx="4.5" cy="4.5" r="4.5" transform="translate(23.462 0.145)"/><ellipse class="d" cx="4.5" cy="5" rx="4.5" ry="5" transform="translate(0.462 24.145)"/><circle class="d" cx="4.5" cy="4.5" r="4.5" transform="translate(23.462 24.145)"/><ellipse class="d" cx="4.5" cy="5" rx="4.5" ry="5" transform="translate(0.462 47.145)"/><circle class="d" cx="4.5" cy="4.5" r="4.5" transform="translate(23.462 47.145)"/><ellipse class="d" cx="4.5" cy="5" rx="4.5" ry="5" transform="translate(0.462 71.145)"/><circle class="d" cx="4.5" cy="4.5" r="4.5" transform="translate(23.462 71.145)"/></g><g transform="translate(6.736 270.173)"><ellipse class="d" cx="2" cy="2.5" rx="2" ry="2.5" transform="translate(0.217 -0.173)"/><ellipse class="d" cx="2" cy="2.5" rx="2" ry="2.5" transform="translate(24.217 -0.173)"/><ellipse class="d" cx="2" cy="2.5" rx="2" ry="2.5" transform="translate(0.217 23.827)"/><ellipse class="d" cx="2" cy="2.5" rx="2" ry="2.5" transform="translate(24.217 23.827)"/><ellipse class="d" cx="2.5" cy="3" rx="2.5" ry="3" transform="translate(0.217 46.827)"/><ellipse class="d" cx="2" cy="2.5" rx="2" ry="2.5" transform="translate(24.217 46.827)"/><ellipse class="d" cx="2" cy="2.5" rx="2" ry="2.5" transform="translate(0.217 70.827)"/><ellipse class="d" cx="2" cy="2.5" rx="2" ry="2.5" transform="translate(24.217 70.827)"/></g></g><g transform="translate(344.393 1012)"><g transform="translate(0 0)"><circle class="d" cx="9.5" cy="9.5" r="9.5" transform="translate(-0.393)"/><circle class="d" cx="9.5" cy="9.5" r="9.5" transform="translate(23.607)"/><circle class="d" cx="9.5" cy="9.5" r="9.5" transform="translate(-0.393 24)"/><circle class="d" cx="9.5" cy="9.5" r="9.5" transform="translate(23.607 24)"/><ellipse class="d" cx="9.5" cy="10" rx="9.5" ry="10" transform="translate(-0.393 47)"/><ellipse class="d" cx="9.5" cy="10" rx="9.5" ry="10" transform="translate(23.607 47)"/><circle class="d" cx="9.5" cy="9.5" r="9.5" transform="translate(-0.393 71)"/><circle class="d" cx="9.5" cy="9.5" r="9.5" transform="translate(23.607 71)"/></g><g transform="translate(2.245 95.047)"><circle class="d" cx="7" cy="7" r="7" transform="translate(0.362 -0.047)"/><circle class="d" cx="7" cy="7" r="7" transform="translate(24.362 -0.047)"/><circle class="d" cx="7" cy="7" r="7" transform="translate(0.362 22.953)"/><circle class="d" cx="7" cy="7" r="7" transform="translate(24.362 22.953)"/><circle class="d" cx="7" cy="7" r="7" transform="translate(0.362 46.953)"/><circle class="d" cx="7" cy="7" r="7" transform="translate(24.362 46.953)"/><circle class="d" cx="7" cy="7" r="7" transform="translate(0.362 70.953)"/><circle class="d" cx="7" cy="7" r="7" transform="translate(24.362 70.953)"/></g><g transform="translate(4.49 184.856)"><circle class="d" cx="5" cy="5" r="5" transform="translate(0.116 0.145)"/><circle class="d" cx="5" cy="5" r="5" transform="translate(24.116 0.145)"/><circle class="d" cx="5" cy="5" r="5" transform="translate(0.116 24.145)"/><circle class="d" cx="5" cy="5" r="5" transform="translate(24.116 24.145)"/><circle class="d" cx="5" cy="5" r="5" transform="translate(0.116 47.145)"/><circle class="d" cx="5" cy="5" r="5" transform="translate(24.116 47.145)"/><circle class="d" cx="5" cy="5" r="5" transform="translate(0.116 71.145)"/><circle class="d" cx="5" cy="5" r="5" transform="translate(24.116 71.145)"/></g><g transform="translate(7.484 270.173)"><ellipse class="d" cx="2" cy="2.5" rx="2" ry="2.5" transform="translate(0.123 -0.173)"/><circle class="d" cx="2.5" cy="2.5" r="2.5" transform="translate(23.123 -0.173)"/><ellipse class="d" cx="2" cy="2.5" rx="2" ry="2.5" transform="translate(0.123 23.827)"/><circle class="d" cx="2.5" cy="2.5" r="2.5" transform="translate(23.123 23.827)"/><ellipse class="d" cx="2" cy="2.5" rx="2" ry="2.5" transform="translate(0.123 46.827)"/><ellipse class="d" cx="2.5" cy="3" rx="2.5" ry="3" transform="translate(23.123 46.827)"/><ellipse class="d" cx="2" cy="2.5" rx="2" ry="2.5" transform="translate(0.123 70.827)"/><circle class="d" cx="2.5" cy="2.5" r="2.5" transform="translate(23.123 70.827)"/></g></g><g transform="translate(107.149 1012)"><g transform="translate(0 255.954)"><ellipse class="d" cx="10" cy="9.5" rx="10" ry="9.5" transform="translate(-0.149 71.046)"/><circle class="d" cx="9.5" cy="9.5" r="9.5" transform="translate(23.851 71.046)"/><circle class="d" cx="10" cy="10" r="10" transform="translate(-0.149 47.046)"/><ellipse class="d" cx="9.5" cy="10" rx="9.5" ry="10" transform="translate(23.851 47.046)"/><ellipse class="d" cx="10" cy="9.5" rx="10" ry="9.5" transform="translate(-0.149 24.046)"/><circle class="d" cx="9.5" cy="9.5" r="9.5" transform="translate(23.851 24.046)"/><ellipse class="d" cx="10" cy="9.5" rx="10" ry="9.5" transform="translate(-0.149 0.046)"/><circle class="d" cx="9.5" cy="9.5" r="9.5" transform="translate(23.851 0.046)"/></g><g transform="translate(2.994 166.145)"><circle class="d" cx="7" cy="7" r="7" transform="translate(-0.143 70.855)"/><ellipse class="d" cx="7.5" cy="7" rx="7.5" ry="7" transform="translate(22.857 70.855)"/><ellipse class="d" cx="7" cy="7.5" rx="7" ry="7.5" transform="translate(-0.143 46.855)"/><circle class="d" cx="7.5" cy="7.5" r="7.5" transform="translate(22.857 46.855)"/><ellipse class="d" cx="7" cy="7.5" rx="7" ry="7.5" transform="translate(-0.143 22.855)"/><circle class="d" cx="7.5" cy="7.5" r="7.5" transform="translate(22.857 22.855)"/><circle class="d" cx="7" cy="7" r="7" transform="translate(-0.143 -0.145)"/><ellipse class="d" cx="7.5" cy="7" rx="7.5" ry="7" transform="translate(22.857 -0.145)"/></g><g transform="translate(5.239 80.827)"><circle class="d" cx="4.5" cy="4.5" r="4.5" transform="translate(-0.388 71.172)"/><ellipse class="d" cx="4.5" cy="5" rx="4.5" ry="5" transform="translate(23.612 71.172)"/><circle class="d" cx="4.5" cy="4.5" r="4.5" transform="translate(-0.388 47.172)"/><ellipse class="d" cx="4.5" cy="5" rx="4.5" ry="5" transform="translate(23.612 47.172)"/><circle class="d" cx="4.5" cy="4.5" r="4.5" transform="translate(-0.388 23.172)"/><ellipse class="d" cx="4.5" cy="5" rx="4.5" ry="5" transform="translate(23.612 23.172)"/><circle class="d" cx="4.5" cy="4.5" r="4.5" transform="translate(-0.388 0.172)"/><ellipse class="d" cx="4.5" cy="5" rx="4.5" ry="5" transform="translate(23.612 0.172)"/></g><g transform="translate(7.484)"><ellipse class="d" cx="2" cy="2.5" rx="2" ry="2.5" transform="translate(0.367 71)"/><ellipse class="d" cx="2" cy="2.5" rx="2" ry="2.5" transform="translate(24.367 71)"/><ellipse class="d" cx="2" cy="2.5" rx="2" ry="2.5" transform="translate(0.367 47)"/><ellipse class="d" cx="2" cy="2.5" rx="2" ry="2.5" transform="translate(24.367 47)"/><circle class="d" cx="2" cy="2" r="2" transform="translate(0.367 24)"/><circle class="d" cx="2" cy="2" r="2" transform="translate(24.367 24)"/><circle class="d" cx="2" cy="2" r="2" transform="translate(0.367)"/><circle class="d" cx="2" cy="2" r="2" transform="translate(24.367)"/></g></g><g transform="translate(297.244 1012)"><g transform="translate(0 255.954)"><circle class="d" cx="9.5" cy="9.5" r="9.5" transform="translate(-0.244 71.046)"/><ellipse class="d" cx="10" cy="9.5" rx="10" ry="9.5" transform="translate(22.756 71.046)"/><ellipse class="d" cx="9.5" cy="10" rx="9.5" ry="10" transform="translate(-0.244 47.046)"/><circle class="d" cx="10" cy="10" r="10" transform="translate(22.756 47.046)"/><circle class="d" cx="9.5" cy="9.5" r="9.5" transform="translate(-0.244 24.046)"/><ellipse class="d" cx="10" cy="9.5" rx="10" ry="9.5" transform="translate(22.756 24.046)"/><circle class="d" cx="9.5" cy="9.5" r="9.5" transform="translate(-0.244 0.046)"/><ellipse class="d" cx="10" cy="9.5" rx="10" ry="9.5" transform="translate(22.756 0.046)"/></g><g transform="translate(2.245 166.145)"><ellipse class="d" cx="7.5" cy="7" rx="7.5" ry="7" transform="translate(-0.489 70.855)"/><ellipse class="d" cx="7.5" cy="7" rx="7.5" ry="7" transform="translate(23.511 70.855)"/><circle class="d" cx="7.5" cy="7.5" r="7.5" transform="translate(-0.489 46.855)"/><circle class="d" cx="7.5" cy="7.5" r="7.5" transform="translate(23.511 46.855)"/><circle class="d" cx="7.5" cy="7.5" r="7.5" transform="translate(-0.489 22.855)"/><circle class="d" cx="7.5" cy="7.5" r="7.5" transform="translate(23.511 22.855)"/><ellipse class="d" cx="7.5" cy="7" rx="7.5" ry="7" transform="translate(-0.489 -0.145)"/><ellipse class="d" cx="7.5" cy="7" rx="7.5" ry="7" transform="translate(23.511 -0.145)"/></g><g transform="translate(4.49 80.827)"><ellipse class="d" cx="4.5" cy="5" rx="4.5" ry="5" transform="translate(0.266 71.172)"/><circle class="d" cx="4.5" cy="4.5" r="4.5" transform="translate(24.266 71.172)"/><ellipse class="d" cx="4.5" cy="5" rx="4.5" ry="5" transform="translate(0.266 47.172)"/><circle class="d" cx="4.5" cy="4.5" r="4.5" transform="translate(24.266 47.172)"/><ellipse class="d" cx="4.5" cy="5" rx="4.5" ry="5" transform="translate(0.266 23.172)"/><circle class="d" cx="4.5" cy="4.5" r="4.5" transform="translate(24.266 23.172)"/><ellipse class="d" cx="4.5" cy="5" rx="4.5" ry="5" transform="translate(0.266 0.172)"/><circle class="d" cx="4.5" cy="4.5" r="4.5" transform="translate(24.266 0.172)"/></g><g transform="translate(6.736)"><ellipse class="d" cx="2" cy="2.5" rx="2" ry="2.5" transform="translate(0.021 71)"/><ellipse class="d" cx="2" cy="2.5" rx="2" ry="2.5" transform="translate(24.021 71)"/><circle class="d" cx="2.5" cy="2.5" r="2.5" transform="translate(0.021 47)"/><ellipse class="d" cx="2" cy="2.5" rx="2" ry="2.5" transform="translate(24.021 47)"/><circle class="d" cx="2" cy="2" r="2" transform="translate(0.021 24)"/><circle class="d" cx="2" cy="2" r="2" transform="translate(24.021 24)"/><circle class="d" cx="2" cy="2" r="2" transform="translate(0.021)"/><circle class="d" cx="2" cy="2" r="2" transform="translate(24.021)"/></g></g><g transform="translate(202.197 1012)"><g transform="translate(0 255.954)"><circle class="d" cx="9.5" cy="9.5" r="9.5" transform="translate(-0.197 71.046)"/><circle class="d" cx="9.5" cy="9.5" r="9.5" transform="translate(23.803 71.046)"/><ellipse class="d" cx="9.5" cy="10" rx="9.5" ry="10" transform="translate(-0.197 47.046)"/><ellipse class="d" cx="9.5" cy="10" rx="9.5" ry="10" transform="translate(23.803 47.046)"/><circle class="d" cx="9.5" cy="9.5" r="9.5" transform="translate(-0.197 24.046)"/><circle class="d" cx="9.5" cy="9.5" r="9.5" transform="translate(23.803 24.046)"/><circle class="d" cx="9.5" cy="9.5" r="9.5" transform="translate(-0.197 0.046)"/><circle class="d" cx="9.5" cy="9.5" r="9.5" transform="translate(23.803 0.046)"/></g><g transform="translate(2.245 166.145)"><ellipse class="d" cx="7.5" cy="7" rx="7.5" ry="7" transform="translate(-0.442 70.855)"/><ellipse class="d" cx="7.5" cy="7" rx="7.5" ry="7" transform="translate(23.558 70.855)"/><circle class="d" cx="7.5" cy="7.5" r="7.5" transform="translate(-0.442 46.855)"/><circle class="d" cx="7.5" cy="7.5" r="7.5" transform="translate(23.558 46.855)"/><circle class="d" cx="7.5" cy="7.5" r="7.5" transform="translate(-0.442 22.855)"/><circle class="d" cx="7.5" cy="7.5" r="7.5" transform="translate(23.558 22.855)"/><ellipse class="d" cx="7.5" cy="7" rx="7.5" ry="7" transform="translate(-0.442 -0.145)"/><ellipse class="d" cx="7.5" cy="7" rx="7.5" ry="7" transform="translate(23.558 -0.145)"/></g><g transform="translate(4.49 80.827)"><ellipse class="d" cx="4.5" cy="5" rx="4.5" ry="5" transform="translate(0.313 71.172)"/><ellipse class="d" cx="4.5" cy="5" rx="4.5" ry="5" transform="translate(24.313 71.172)"/><ellipse class="d" cx="4.5" cy="5" rx="4.5" ry="5" transform="translate(0.313 47.172)"/><ellipse class="d" cx="4.5" cy="5" rx="4.5" ry="5" transform="translate(24.313 47.172)"/><ellipse class="d" cx="4.5" cy="5" rx="4.5" ry="5" transform="translate(0.313 23.172)"/><ellipse class="d" cx="4.5" cy="5" rx="4.5" ry="5" transform="translate(24.313 23.172)"/><ellipse class="d" cx="4.5" cy="5" rx="4.5" ry="5" transform="translate(0.313 0.172)"/><ellipse class="d" cx="4.5" cy="5" rx="4.5" ry="5" transform="translate(24.313 0.172)"/></g><g transform="translate(7.484)"><ellipse class="d" cx="2" cy="2.5" rx="2" ry="2.5" transform="translate(0.319 71)"/><ellipse class="d" cx="2" cy="2.5" rx="2" ry="2.5" transform="translate(23.319 71)"/><ellipse class="d" cx="2" cy="2.5" rx="2" ry="2.5" transform="translate(0.319 47)"/><circle class="d" cx="2.5" cy="2.5" r="2.5" transform="translate(23.319 47)"/><circle class="d" cx="2" cy="2" r="2" transform="translate(0.319 24)"/><circle class="d" cx="2" cy="2" r="2" transform="translate(23.319 24)"/><circle class="d" cx="2" cy="2" r="2" transform="translate(0.319)"/><circle class="d" cx="2" cy="2" r="2" transform="translate(23.319)"/></g></g></g></g></g></svg>