<svg xmlns="http://www.w3.org/2000/svg" xmlns:xlink="http://www.w3.org/1999/xlink" width="36.877" height="40"
     viewBox="0 0 36.877 40">
    <defs>
        <style>.a{fill:url(#a);}.b,.c{fill:url(#b);}.c{fill-rule:evenodd;}</style>
        <linearGradient id="a" x1="0.5" x2="0.5" y2="1" gradientUnits="objectBoundingBox">
            <stop offset="0" stop-color="#3fbec3"/>
            <stop offset="1" stop-color="#3b6cba"/>
        </linearGradient>
        <linearGradient id="b" x1="0.5" x2="0.5" y2="1" gradientUnits="objectBoundingBox">
            <stop offset="0" stop-color="#131a22"/>
            <stop offset="1" stop-color="#12222c"/>
        </linearGradient>
    </defs>
    <g transform="translate(0.8)">
        <path class="a" d="M16.347,25.207A5.207,5.207,0,1,0,11.14,20,5.207,5.207,0,0,0,16.347,25.207Z"
              transform="translate(0.56 0)"/>
        <g transform="translate(-0.8)">
            <path class="b"
                  d="M16.077,0H9.11a1,1,0,0,0-1,1V7.88a1,1,0,0,0,1,1h6.967a11.121,11.121,0,0,1,0,22.241H9.11a1,1,0,0,0-1,1V39a1,1,0,0,0,1,1h6.967a20,20,0,0,0,0-40Z"
                  transform="translate(0.8)"/>
            <path class="c"
                  d="M17.736,27.707a.339.339,0,0,1,.326-.334,6.679,6.679,0,0,0,0-13.341.339.339,0,0,1-.326-.334v-1.55a.317.317,0,0,1,.329-.32,8.884,8.884,0,0,1,0,17.747.317.317,0,0,1-.329-.32Zm-2.946-.992a.33.33,0,0,1,.1.537,8.884,8.884,0,1,1,0-13.1.33.33,0,0,1-.1.537,6.681,6.681,0,0,0,0,12.025Z"
                  transform="translate(0 -0.703)"/>
        </g>
    </g>
</svg>
