<svg xmlns="http://www.w3.org/2000/svg" xmlns:xlink="http://www.w3.org/1999/xlink" width="569.534" height="239.962" viewBox="0 0 569.534 239.962"><defs><style>.a{opacity:0.04;}.b{fill:url(#a);}.c,.d{fill:#fff;}.d{fill-rule:evenodd;}</style><linearGradient id="a" x1="0.5" x2="0.5" y2="1" gradientUnits="objectBoundingBox"><stop offset="0" stop-color="#3fbec3"/><stop offset="1" stop-color="#3b6cba"/></linearGradient></defs><g class="a" transform="translate(0.8)"><path class="b" d="M42.377,77.266A31.237,31.237,0,1,0,11.14,46.03,31.237,31.237,0,0,0,42.377,77.266Z" transform="translate(63.047 73.95)"/><g transform="translate(-0.8)"><path class="c" d="M55.9,0h-41.8a6,6,0,0,0-6,6V47.272a6,6,0,0,0,6,6H55.9a66.712,66.712,0,0,1,0,133.423h-41.8a6,6,0,0,0-6,6V233.96a6,6,0,0,0,6,6H55.9A119.979,119.979,0,0,0,55.9,0Z" transform="translate(45.34 0)"/><path class="d" d="M106.4,107.133a2.031,2.031,0,0,1,1.954-2,40.064,40.064,0,0,0,0-80.033,2.031,2.031,0,0,1-1.954-2v-9.3a1.9,1.9,0,0,1,1.976-1.917,53.295,53.295,0,0,1,0,106.466,1.9,1.9,0,0,1-1.976-1.917Zm-17.67-5.95a1.982,1.982,0,0,1,.578,3.224,53.295,53.295,0,1,1,0-78.584,1.982,1.982,0,0,1-.578,3.223,40.078,40.078,0,0,0,0,72.136Z" transform="translate(0 54.865)"/><path class="c" d="M110.023,93.29a19.956,19.956,0,0,1,0-39.911h64.345a6,6,0,0,0,6-6V6a6,6,0,0,0-6-6H110.023a73.337,73.337,0,0,0,0,146.669,19.956,19.956,0,1,1,0,39.911H45.678a6,6,0,0,0-6,6V233.96a6,6,0,0,0,6,6h64.345a73.337,73.337,0,1,0,0-146.669Z" transform="translate(191.508 0)"/><path class="c" d="M185.043,4.341A6,6,0,0,0,179.277,0H134.811a6,6,0,0,0-5.763,4.33L63.037,232.292a6,6,0,0,0,5.762,7.667h43a6,6,0,0,0,5.763-4.332l36.359-125.682a3,3,0,0,1,5.763,0l36.359,125.682a6,6,0,0,0,5.763,4.332h43.014a6,6,0,0,0,5.766-7.656Z" transform="translate(318.715)"/></g></g></svg>