<svg xmlns="http://www.w3.org/2000/svg" width="113.925" height="48" viewBox="0 0 113.925 48">
    <defs>
        <style>.a{fill:url(#a);}.b,.c{fill:url(#b);}.c{fill-rule:evenodd;}</style>
        <linearGradient id="a" x1="0.5" x2="0.5" y2="1" gradientUnits="objectBoundingBox">
            <stop offset="0" stop-color="#3fbec3"/>
            <stop offset="1" stop-color="#3b6cba"/>
        </linearGradient>
        <linearGradient id="b" x1="0.5" x2="0.5" y2="1" gradientUnits="objectBoundingBox">
            <stop offset="0" stop-color="#131a22"/>
            <stop offset="1" stop-color="#12222c"/>
        </linearGradient>
    </defs>
    <g transform="translate(0.8)">
        <path class="a" d="M17.388,27.29a6.248,6.248,0,1,0-6.248-6.248A6.248,6.248,0,0,0,17.388,27.29Z"
              transform="translate(3.06 2.958)"/>
        <g transform="translate(-0.8)">
            <path class="b"
                  d="M17.67,0H9.31a1.2,1.2,0,0,0-1.2,1.2V9.456a1.2,1.2,0,0,0,1.2,1.2h8.36a13.344,13.344,0,0,1,0,26.689H9.31a1.2,1.2,0,0,0-1.2,1.2V46.8A1.2,1.2,0,0,0,9.31,48h8.36a24,24,0,0,0,0-48Z"
                  transform="translate(2.582)"/>
            <path class="c"
                  d="M21.282,30.885a.406.406,0,0,1,.391-.4,8.014,8.014,0,0,0,0-16.009.406.406,0,0,1-.391-.4v-1.86a.38.38,0,0,1,.4-.384,10.661,10.661,0,0,1,0,21.3.38.38,0,0,1-.4-.384Zm-3.535-1.19a.4.4,0,0,1,.116.645,10.661,10.661,0,1,1,0-15.719.4.4,0,0,1-.116.645,8.017,8.017,0,0,0,0,14.43Z"
                  transform="translate(0 1.52)"/>
            <path class="b"
                  d="M51.887,18.661a3.992,3.992,0,0,1,0-7.983H64.758a1.2,1.2,0,0,0,1.2-1.2V1.2a1.2,1.2,0,0,0-1.2-1.2H51.887a14.67,14.67,0,0,0,0,29.338,3.992,3.992,0,1,1,0,7.983H39.016a1.2,1.2,0,0,0-1.2,1.2V46.8a1.2,1.2,0,0,0,1.2,1.2H51.887a14.67,14.67,0,1,0,0-29.338Z"
                  transform="translate(8.429)"/>
            <path class="b"
                  d="M87.249.868A1.2,1.2,0,0,0,86.1,0H77.2a1.2,1.2,0,0,0-1.153.866l-13.2,45.6A1.2,1.2,0,0,0,64,48h8.6a1.2,1.2,0,0,0,1.153-.867l7.273-25.14a.6.6,0,0,1,1.153,0l7.273,25.14A1.2,1.2,0,0,0,90.6,48h8.6a1.2,1.2,0,0,0,1.153-1.532Z"
                  transform="translate(13.518)"/>
        </g>
    </g>
</svg>
