<svg xmlns="http://www.w3.org/2000/svg" xmlns:xlink="http://www.w3.org/1999/xlink" width="288" height="683.549" viewBox="0 0 288 683.549"><defs><style>.a{opacity:0.04;}.b{fill:url(#a);}.c,.d{fill:#fff;}.d{fill-rule:evenodd;}</style><linearGradient id="a" x1="0.5" x2="0.5" y2="1" gradientUnits="objectBoundingBox"><stop offset="0" stop-color="#3fbec3"/><stop offset="1" stop-color="#3b6cba"/></linearGradient></defs><g class="a" transform="translate(288 0.8) rotate(90)"><path class="b" d="M48.63,89.773a37.49,37.49,0,1,0-37.49-37.49A37.49,37.49,0,0,0,48.63,89.773Z" transform="translate(78.059 91.715)"/><g transform="translate(-0.8)"><path class="c" d="M65.472,0H15.31a7.2,7.2,0,0,0-7.2,7.2V56.735a7.2,7.2,0,0,0,7.2,7.2H65.472a80.067,80.067,0,0,1,0,160.133H15.31a7.2,7.2,0,0,0-7.2,7.2V280.8a7.2,7.2,0,0,0,7.2,7.2H65.472a144,144,0,0,0,0-288Z" transform="translate(56.04 0)"/><path class="d" d="M127.695,126.213a2.437,2.437,0,0,1,2.345-2.4,48.085,48.085,0,0,0,0-96.055,2.438,2.438,0,0,1-2.345-2.4V14.19a2.279,2.279,0,0,1,2.371-2.3,63.964,63.964,0,0,1,0,127.78,2.279,2.279,0,0,1-2.371-2.3Zm-21.208-7.142a2.379,2.379,0,0,1,.694,3.869,63.964,63.964,0,1,1,0-94.315,2.378,2.378,0,0,1-.694,3.869,48.1,48.1,0,0,0,0,86.577Z" transform="translate(0 68.215)"/><path class="c" d="M124.572,111.966a23.951,23.951,0,0,1,0-47.9H201.8a7.2,7.2,0,0,0,7.2-7.2V7.2A7.2,7.2,0,0,0,201.8,0H124.572a88.019,88.019,0,0,0,0,176.031,23.951,23.951,0,1,1,0,47.9H47.346a7.2,7.2,0,0,0-7.2,7.2V280.8a7.2,7.2,0,0,0,7.2,7.2h77.226a88.019,88.019,0,1,0,0-176.031Z" transform="translate(237.324 0)"/><path class="c" d="M209.516,5.211A7.2,7.2,0,0,0,202.6,0H149.227a7.2,7.2,0,0,0-6.916,5.2l-79.226,273.6A7.2,7.2,0,0,0,70,288h51.606a7.2,7.2,0,0,0,6.916-5.2L172.16,131.955a3.6,3.6,0,0,1,6.916,0L222.713,282.8a7.2,7.2,0,0,0,6.917,5.2h51.625a7.2,7.2,0,0,0,6.92-9.189Z" transform="translate(395.09)"/></g></g></svg>