<svg xmlns="http://www.w3.org/2000/svg" xmlns:xlink="http://www.w3.org/1999/xlink" width="50" height="40.209"
     viewBox="0 0 50 40.209">
    <defs>
        <style>.a{fill:url(#a);}.b{filter:url(#e);}.c{filter:url(#b);}</style>
        <linearGradient id="a" x1="0.5" x2="0.5" y2="1" gradientUnits="objectBoundingBox">
            <stop offset="0" stop-color="#3b6cba"/>
            <stop offset="0.841" stop-color="#3eb1c2"/>
            <stop offset="1" stop-color="#3fbec3"/>
        </linearGradient>
        <filter id="b" x="17.684" y="0" width="32.316" height="40.209" filterUnits="userSpaceOnUse">
            <feOffset dy="3" input="SourceAlpha"/>
            <feGaussianBlur stdDeviation="3" result="c"/>
            <feFlood flood-color="#131a22" flood-opacity="0.161"/>
            <feComposite operator="in" in2="c"/>
            <feComposite in="SourceGraphic"/>
        </filter>
        <filter id="e" x="0" y="0" width="32.316" height="40.209" filterUnits="userSpaceOnUse">
            <feOffset dy="3" input="SourceAlpha"/>
            <feGaussianBlur stdDeviation="3" result="f"/>
            <feFlood flood-color="#131a22" flood-opacity="0.161"/>
            <feComposite operator="in" in2="f"/>
            <feComposite in="SourceGraphic"/>
        </filter>
    </defs>
    <g transform="translate(-71 -1126.792)">
        <g class="c" transform="matrix(1, 0, 0, 1, 71, 1126.79)">
            <path class="a"
                  d="M62.815,25.028a11.649,11.649,0,0,1,4.379-4.177A2.054,2.054,0,0,0,68.238,19.1a2.012,2.012,0,0,0-2.829-1.853C61.5,18.965,55,23.243,55,32.1a7.158,7.158,0,1,0,7.815-7.074Z"
                  transform="translate(-28.32 -11.07)"/>
        </g>
        <g class="b" transform="matrix(1, 0, 0, 1, 71, 1126.79)">
            <path class="a"
                  d="M10.281,25.028a11.649,11.649,0,0,1,4.379-4.177A2.054,2.054,0,0,0,15.7,19.1a2.012,2.012,0,0,0-2.829-1.853C9,18.965,2.5,23.243,2.5,32.1a7.158,7.158,0,1,0,7.781-7.074Z"
                  transform="translate(6.5 -11.07)"/>
        </g>
    </g>
</svg>
